<svg width="25" height="23" viewBox="0 0 25 23" fill="none" xmlns="http://www.w3.org/2000/svg">
<path d="M5.85642 0.548152L5.85661 0.548105C6.57343 0.37158 7.28036 0.69334 7.56664 1.23103L7.59754 1.29788L9.55058 5.52305L9.55068 5.52326C9.77585 6.0098 9.63302 6.58625 9.14146 6.94849C9.14145 6.9485 9.14145 6.9485 9.14144 6.94851L6.73434 8.72219L6.3887 8.97687L6.5882 9.35704C8.27142 12.5647 11.1456 15.1499 14.6812 16.6574L15.0081 16.7968L15.2472 16.5338L17.2198 14.364L17.2217 14.3619C17.6165 13.9226 18.3177 13.7532 18.9345 13.9851L18.9347 13.9852L23.622 15.7457L23.623 15.7461C24.3164 16.0048 24.6246 16.6495 24.452 17.2188L24.452 17.219L23.2806 21.0905C23.2805 21.0908 23.2805 21.091 23.2804 21.0913C23.1179 21.6207 22.5611 22.0352 21.874 22.0352C10.0205 22.0352 0.5 13.3827 0.5 2.81777C0.5 2.28834 0.900427 1.76863 1.56045 1.60427C1.56064 1.60422 1.56083 1.60417 1.56102 1.60412L5.85642 0.548152Z" fill="#FAFAFA" stroke="black"/>
</svg>
